# File created by Blade
# Date/Time:  Thu Jan 22 16:52:56 2015
# Frame Rate: 120.000 fps
#------------------------------------------------------
:FULLY-SPECIFIED
:DEGREES
939
root 2.826901 3.798111 -0.414625 -36.446256 -4.706064 16.474147
RightUpLeg -53.771044 -23.246940 -34.558841
RightLeg 5.265982 -0.000000 -0.000000
RightFoot -2.045932 -17.821437 30.734634
RightToeBase -18.151789 -0.000000 0.000000
LeftUpLeg -36.781947 35.399843 16.492814
LeftLeg -1.495946 -0.000000 0.000000
LeftFoot 11.683264 26.290419 -33.827263
LeftToeBase 1.536694 -0.000000 -0.000000
Spine 68.244040 -21.112063 13.415948
RightShoulder 14.209887 51.795139 -30.088761
RightArm 17.211499 11.664478 34.985556
RightForeArm -37.107359 0.000000 33.420067
RightHand -1.237767 0.000000 -6.827411
RightHandThumb1 -24.326973 -0.000000 -32.862282
LeftShoulder -12.697311 0.207200 56.343648
LeftArm 110.983642 -47.663906 -48.568182
LeftForeArm 61.942332 -0.000000 30.440477
LeftHand -12.434453 -0.000000 -2.511275
LeftHandThumb1 -26.253704 0.000000 33.147579
Head 45.319773 -12.578991 34.390266
940
root 2.823749 3.798638 -0.414489 -36.465637 -4.747144 16.461620
RightUpLeg -53.795834 -23.244600 -34.480578
RightLeg 5.300568 -0.000000 -0.000000
RightFoot -2.055197 -17.904328 31.035653
RightToeBase -18.635357 -0.000000 0.000000
LeftUpLeg -36.747982 35.453600 16.528646
LeftLeg -1.518040 -0.000000 0.000000
LeftFoot 11.686986 26.317764 -33.843413
LeftToeBase 1.510674 -0.000000 -0.000000
Spine 68.301619 -21.147758 13.314462
RightShoulder 14.146719 51.374312 -30.311890
RightArm 17.314576 11.979586 34.985470
RightForeArm -37.035746 -0.000000 33.478751
RightHand -0.961027 -0.000000 -6.835948
RightHandThumb1 -24.326973 -0.000000 -32.862282
LeftShoulder -12.566873 0.215243 56.346584
LeftArm 110.892473 -47.547340 -48.506220
LeftForeArm 62.024644 -0.000000 30.460658
LeftHand -12.251763 -0.000000 -2.569580
LeftHandThumb1 -26.253704 0.000000 33.147579
Head 45.822996 -12.874139 33.567453
941
root 2.822478 3.800430 -0.412079 -36.478352 -4.760013 16.458476
RightUpLeg -53.794305 -23.268609 -34.437403
RightLeg 5.283870 -0.000000 -0.000000
RightFoot -2.027976 -18.050924 30.696409
RightToeBase -18.735998 -0.000000 0.000000
LeftUpLeg -36.732191 35.501341 16.518696
LeftLeg -1.543420 -0.000000 0.000000
LeftFoot 11.693983 26.343958 -33.825081
LeftToeBase 1.511439 -0.000000 -0.000000
Spine 68.351689 -21.213828 13.200493
RightShoulder 13.981591 50.682515 -30.615679
RightArm 17.638312 12.590870 35.065575
RightForeArm -37.023522 -0.000000 33.611032
RightHand -0.756870 -0.000000 -6.851433
RightHandThumb1 -24.326973 -0.000000 -32.862282
LeftShoulder -12.482236 0.223862 56.296637
LeftArm 110.911425 -47.384782 -48.517689
LeftForeArm 62.166727 -0.000000 30.454719
LeftHand -12.202172 -0.000000 -2.689234
LeftHandThumb1 -26.253704 0.000000 33.147579
Head 46.384555 -13.008982 33.161138
942
root 2.819092 3.799602 -0.411485 -36.491733 -4.795946 16.440707
RightUpLeg -53.815805 -23.259603 -34.391043
RightLeg 5.327832 -0.000000 -0.000000
RightFoot -1.962319 -18.122610 30.354509
RightToeBase -18.997887 -0.000000 0.000000
LeftUpLeg -36.706306 35.537662 16.564299
LeftLeg -1.556975 -0.000000 0.000000
LeftFoot 11.670524 26.397046 -33.841437
LeftToeBase 1.540347 -0.000000 -0.000000
Spine 68.396565 -21.234465 13.103483
RightShoulder 14.008114 50.452130 -30.700914
RightArm 17.570548 12.820767 35.069245
RightForeArm -36.969947 -0.000000 33.823913
RightHand -0.610611 -0.000000 -6.950861
RightHandThumb1 -24.326973 -0.000000 -32.862282
LeftShoulder -12.395365 0.243417 56.317895
LeftArm 110.869532 -47.246843 -48.480033
LeftForeArm 62.174092 -0.000000 30.451607
LeftHand -12.109713 -0.000000 -2.759340
LeftHandThumb1 -26.253704 0.000000 33.147579
Head 46.855860 -13.235812 32.766099
